<svg width="263" height="94" viewBox="0 0 263 94" fill="none" xmlns="http://www.w3.org/2000/svg">
<rect width="262.124" height="94" rx="47" fill="#846E82"/>
<path d="M103.912 34.544V28.16H94.552V34.544H103.912ZM94.552 47.648V54.896C97.528 54.48 100.648 54.032 103.912 53.552V47.648H94.552ZM103.912 44.384V37.712H94.552V44.384H103.912ZM110.728 28.16H107.368V65.552H103.912V56.864C100.776 57.376 97.72 57.872 94.744 58.352C91.928 58.768 89.4 59.168 87.16 59.552L86.536 55.952C87.912 55.792 89.464 55.6 91.192 55.376V28.16H87.448V24.848H110.728V28.16ZM127.336 28.256L129.64 28.928C128.36 39.136 125.768 47.248 121.864 53.264C124.488 57.136 127.784 60.112 131.752 62.192C131.336 62.544 130.888 62.992 130.408 63.536C129.928 64.112 129.528 64.64 129.208 65.12C125.432 62.944 122.248 60.048 119.656 56.432C116.808 60.016 113.544 62.864 109.864 64.976C109.576 64.496 109.208 63.984 108.76 63.44C108.344 62.896 107.928 62.448 107.512 62.096C111.32 60.112 114.68 57.152 117.592 53.216C114.36 47.488 111.976 40.656 110.44 32.72L113.848 32.096C115.064 38.784 117.032 44.704 119.752 49.856C122.568 44.96 124.552 38.976 125.704 31.904H109.528V28.4H126.664L127.336 28.256ZM174.28 23.168L177.688 24.56C175.928 27.92 174.12 30.912 172.264 33.536L169.192 32.24C170.088 30.96 171 29.488 171.928 27.824C172.888 26.16 173.672 24.608 174.28 23.168ZM145.528 40.448L143.416 43.28C142.488 42.384 141.24 41.408 139.672 40.352C138.104 39.296 136.552 38.352 135.016 37.52L137.032 35.024C138.568 35.792 140.12 36.672 141.688 37.664C143.288 38.656 144.568 39.584 145.528 40.448ZM139.528 65.168L136.456 62.912C137.64 60.96 138.968 58.592 140.44 55.808C141.912 53.024 143.288 50.24 144.568 47.456L147.208 49.616C144.84 55.056 142.28 60.24 139.528 65.168ZM137.272 24.8L139.336 22.352C140.84 23.12 142.36 24.016 143.896 25.04C145.464 26.032 146.712 26.96 147.64 27.824L145.432 30.608C144.536 29.68 143.32 28.688 141.784 27.632C140.28 26.576 138.776 25.632 137.272 24.8ZM157.912 32.192L154.696 33.776C154.312 32.496 153.672 31.04 152.776 29.408C151.88 27.744 150.92 26.208 149.896 24.8L152.92 23.408C153.976 24.784 154.968 26.272 155.896 27.872C156.824 29.472 157.496 30.912 157.912 32.192ZM154.744 52.16H172.36V47.024H154.744V52.16ZM172.36 38.816H154.744V43.904H172.36V38.816ZM175.816 35.456V61.184C175.816 63.2 175.208 64.416 173.992 64.832C173.256 65.12 172.28 65.28 171.064 65.312C169.848 65.376 168.328 65.408 166.504 65.408C166.408 64.896 166.248 64.32 166.024 63.68C165.832 63.072 165.608 62.512 165.352 62C166.76 62.032 168.024 62.048 169.144 62.048C170.264 62.08 171 62.096 171.352 62.096C171.736 62.064 171.992 61.984 172.12 61.856C172.28 61.696 172.36 61.456 172.36 61.136V55.232H154.744V65.696H151.24V35.456H161.944V21.824H165.448V35.456H175.816Z" fill="white"/>
</svg>
