<svg width="263" height="94" viewBox="0 0 263 94" fill="none" xmlns="http://www.w3.org/2000/svg">
<rect width="262.124" height="94" rx="47" fill="#846E82"/>
<path d="M111.256 55.52V60.512H117.736V55.52H111.256ZM117.736 44.864V39.968H111.256V44.864H117.736ZM117.736 52.736V47.648H111.256V52.736H117.736ZM100.168 56.672V42.08H93.976V56.672H100.168ZM130.888 60.512V63.584H111.256V65.648H107.896V42.896C107.064 43.696 106.216 44.448 105.352 45.152C105.128 44.832 104.808 44.464 104.392 44.048C103.976 43.632 103.576 43.248 103.192 42.896V59.792H93.976V63.536H91.048V48.08C90.248 49.776 89.352 51.328 88.36 52.736C88.136 52.288 87.816 51.728 87.4 51.056C87.016 50.384 86.664 49.84 86.344 49.424C88.072 46.832 89.48 43.728 90.568 40.112C91.656 36.464 92.504 32.544 93.112 28.352H87.688V25.088H104.536V28.352H96.472C95.96 32.064 95.24 35.616 94.312 39.008H103.192V42.272C107.288 39.104 110.536 34.944 112.936 29.792H107.752V34.88H104.632V26.72H114.232C114.872 25.12 115.4 23.488 115.816 21.824L119.224 22.496C118.808 23.936 118.36 25.344 117.88 26.72H130.648V34.88H127.432V29.792H116.632C115.544 32.352 114.248 34.736 112.744 36.944H118.6C119.496 34.96 120.216 33.072 120.76 31.28L124.12 32.096C123.32 33.792 122.552 35.408 121.816 36.944H129.4V39.968H121.096V44.864H128.632V47.648H121.096V52.736H128.632V55.52H121.096V60.512H130.888ZM169.816 36.32L168.04 39.104C166.728 38.144 165.08 37.12 163.096 36.032C161.432 39.616 158.52 42.512 154.36 44.72C154.136 44.336 153.816 43.904 153.4 43.424C153.016 42.944 152.632 42.544 152.248 42.224C156.12 40.304 158.776 37.76 160.216 34.592C158.072 33.568 155.992 32.704 153.976 32L155.752 29.504C157.544 30.112 159.416 30.848 161.368 31.712C161.848 30.144 162.216 28.56 162.472 26.96H154.408V23.888H177.304C177.304 23.888 177.304 23.952 177.304 24.08C177.304 24.176 177.304 24.304 177.304 24.464C177.304 24.624 177.288 24.784 177.256 24.944C177.256 25.104 177.256 25.248 177.256 25.376C177.064 30.912 176.808 34.96 176.488 37.52C176.168 40.048 175.72 41.616 175.144 42.224C174.504 43.12 173.56 43.584 172.312 43.616C171 43.712 169.128 43.696 166.696 43.568C166.632 42.448 166.328 41.376 165.784 40.352C166.872 40.448 167.864 40.512 168.76 40.544C169.688 40.544 170.344 40.544 170.728 40.544C171.496 40.608 172.008 40.448 172.264 40.064C172.68 39.68 173 38.496 173.224 36.512C173.48 34.528 173.704 31.344 173.896 26.96H165.784C165.464 29.072 164.968 31.136 164.296 33.152C166.536 34.272 168.376 35.328 169.816 36.32ZM160.216 44.912L162.28 42.8C163.88 43.632 165.464 44.624 167.032 45.776C168.632 46.896 169.896 47.984 170.824 49.04L168.616 51.392C167.688 50.368 166.456 49.264 164.92 48.08C163.384 46.864 161.816 45.808 160.216 44.912ZM150.52 23.504V26.384H137.368V23.504H150.52ZM152.008 29.792V32.72H135.016V29.792H152.008ZM150.664 36.272V39.104H137.128V36.272H150.664ZM137.128 45.488V42.608H150.664V45.488H137.128ZM147.64 51.968H140.104V60.032H147.64V51.968ZM150.712 49.04V62.912H140.104V65.12H137.08V49.04H150.712ZM153.64 63.056L151.048 61.376C152.168 60.128 153.016 58.576 153.592 56.72C154.2 54.832 154.616 52.88 154.84 50.864L157.72 51.584C157.496 53.76 157.064 55.872 156.424 57.92C155.816 59.968 154.888 61.68 153.64 63.056ZM164.248 62.144H168.712C169.128 62.144 169.448 62.032 169.672 61.808C169.896 61.552 170.056 61.024 170.152 60.224C170.248 59.424 170.312 58.24 170.344 56.672C170.696 56.992 171.144 57.264 171.688 57.488C172.264 57.712 172.808 57.904 173.32 58.064C173.192 60.88 172.824 62.784 172.216 63.776C171.64 64.768 170.6 65.264 169.096 65.264H163.768C162.008 65.264 160.824 64.944 160.216 64.304C159.64 63.696 159.352 62.512 159.352 60.752V49.232H162.664V60.752C162.664 61.36 162.744 61.744 162.904 61.904C163.096 62.064 163.544 62.144 164.248 62.144ZM171.304 51.152L174.184 50C175.496 51.792 176.632 53.728 177.592 55.808C178.584 57.856 179.256 59.728 179.608 61.424L176.488 62.72C176.168 61.056 175.528 59.168 174.568 57.056C173.64 54.944 172.552 52.976 171.304 51.152Z" fill="white"/>
</svg>
