<svg width="152" height="174" viewBox="0 0 152 174" fill="none" xmlns="http://www.w3.org/2000/svg">
<g filter="url(#filter0_i_743_24)">
<path d="M67.148 0C65.8484 0 64.982 0.866427 64.3322 1.94946L0.64982 149.459C0.216607 150.542 0 152.274 0 153.574V171.119C0 172.202 0.866426 173.069 1.94946 173.069H149.459C150.542 173.069 151.408 172.202 151.408 171.119V153.574C151.408 152.491 151.191 150.542 150.758 149.459L87.0759 1.94946C86.6426 0.866427 85.5596 0 84.26 0H66.7148L67.148 0ZM65.1986 64.982H86.8593V108.303H65.1986V64.982ZM65.1986 129.964H86.8593V151.625H65.1986V129.964Z" fill="#CFAF99"/>
</g>
<defs>
<filter id="filter0_i_743_24" x="0" y="0" width="151.408" height="177.069" filterUnits="userSpaceOnUse" color-interpolation-filters="sRGB">
<feFlood flood-opacity="0" result="BackgroundImageFix"/>
<feBlend mode="normal" in="SourceGraphic" in2="BackgroundImageFix" result="shape"/>
<feColorMatrix in="SourceAlpha" type="matrix" values="0 0 0 0 0 0 0 0 0 0 0 0 0 0 0 0 0 0 127 0" result="hardAlpha"/>
<feOffset dy="4"/>
<feGaussianBlur stdDeviation="2"/>
<feComposite in2="hardAlpha" operator="arithmetic" k2="-1" k3="1"/>
<feColorMatrix type="matrix" values="0 0 0 0 0 0 0 0 0 0 0 0 0 0 0 0 0 0 0.25 0"/>
<feBlend mode="normal" in2="shape" result="effect1_innerShadow_743_24"/>
</filter>
</defs>
</svg>
